<?xml version="1.0" encoding="utf-8"?>
<!-- Generator: Adobe Illustrator 27.5.0, SVG Export Plug-In . SVG Version: 6.00 Build 0)  -->
<svg version="1.0" id="レイヤー_1" xmlns="http://www.w3.org/2000/svg" xmlns:xlink="http://www.w3.org/1999/xlink" x="0px"
	 y="0px" viewBox="0 0 191.5 52.56" style="enable-background:new 0 0 191.5 52.56;" xml:space="preserve">
<style type="text/css">
	.st0{fill:#FFFFFF;}
</style>
<g>
	<g>
		<g>
			<polygon points="38.25,5.9 27.43,4.51 38.88,4.51 44.39,14.05 			"/>
			<polygon points="16.94,46.66 27.77,48.05 16.31,48.05 10.8,38.51 			"/>
			<path d="M54.02,25.23H1.18c-0.42,0-0.81-0.22-1.02-0.59c-0.21-0.36-0.21-0.81,0-1.18L13.37,0.59C13.58,0.22,13.97,0,14.39,0
				h26.42c0.42,0,0.81,0.22,1.02,0.59l13.21,22.88c0.21,0.36,0.21,0.81,0,1.18C54.82,25.01,54.44,25.23,54.02,25.23z M3.21,22.88
				h48.76L40.13,2.35H15.07L3.21,22.88z"/>
			<path d="M40.81,52.56H14.39c-0.42,0-0.81-0.22-1.02-0.59L0.16,29.09c-0.21-0.36-0.21-0.81,0-1.18c0.21-0.36,0.6-0.59,1.02-0.59
				h52.84c0.42,0,0.81,0.22,1.02,0.59c0.21,0.36,0.21,0.81,0,1.18L41.82,51.97C41.61,52.33,41.23,52.56,40.81,52.56z M15.07,50.21
				h25.06l11.85-20.53H3.21L15.07,50.21z"/>
		</g>
	</g>
	<g>
		<path d="M99.82,46.55c-1.85,0-3.16-1.21-3.16-3.04c0-1.77,1.17-3.1,3-3.1c1.23,0,2.42,0.49,2.82,1.94
			c-0.38,0.15-0.77,0.29-1.15,0.42c-0.22-0.79-0.88-1.12-1.63-1.12c-0.93,0-1.72,0.62-1.72,1.78c0,1.12,0.64,1.89,1.83,1.89
			c0.63,0,1.39-0.28,1.7-0.85l1.06,0.48C102.09,46.03,100.98,46.55,99.82,46.55z"/>
		<path d="M103.3,43.51c0-1.89,1.21-3.1,3.03-3.1c1.84,0,3.08,1.22,3.08,3.04c0,1.91-1.22,3.1-3.04,3.1
			C104.53,46.55,103.3,45.34,103.3,43.51z M106.33,41.67c-1.03,0-1.71,0.67-1.71,1.76c0,1.12,0.68,1.87,1.73,1.87
			c1.03,0,1.73-0.67,1.73-1.76C108.08,42.42,107.4,41.67,106.33,41.67z"/>
		<path d="M112.19,43.39v2.93h-1.3v-5.74h1.12c0.01,0.23,0.08,0.95,0.09,1.18c0.6-0.8,1.77-1.32,2.57-1.32v1.32
			C113.74,41.76,112.19,42.34,112.19,43.39z"/>
		<path d="M115.74,40.58h1.22c0.02,0.24,0.05,0.48,0.08,0.72c0.48-0.56,1.21-0.85,2.02-0.85c1.41,0,2.67,0.99,2.67,2.99
			c0,1.94-1.34,3.04-2.8,3.04c-0.77,0-1.45-0.29-1.89-0.86v3.11h-1.3V40.58z M118.66,41.67c-1.12,0-1.62,0.77-1.62,1.78
			c0,1.02,0.52,1.85,1.64,1.85c1.03,0,1.73-0.67,1.73-1.76C120.41,42.42,119.71,41.67,118.66,41.67z"/>
		<path d="M122.73,43.51c0-1.89,1.21-3.1,3.03-3.1c1.84,0,3.08,1.22,3.08,3.04c0,1.91-1.22,3.1-3.04,3.1
			C123.96,46.55,122.73,45.34,122.73,43.51z M125.76,41.67c-1.03,0-1.71,0.67-1.71,1.76c0,1.12,0.68,1.87,1.73,1.87
			c1.03,0,1.73-0.67,1.73-1.76C127.52,42.42,126.83,41.67,125.76,41.67z"/>
		<path d="M131.62,43.39v2.93h-1.3v-5.74h1.12c0.01,0.23,0.08,0.95,0.09,1.18c0.6-0.8,1.77-1.32,2.57-1.32v1.32
			C133.17,41.76,131.62,42.34,131.62,43.39z"/>
		<path d="M137.35,40.44c0.79,0,1.51,0.31,2.01,0.86c0.03-0.24,0.07-0.48,0.09-0.72h1.22v5.74h-1.22l-0.08-0.69
			c-0.46,0.57-1.14,0.86-1.88,0.86c-1.47,0-2.81-1.11-2.81-3.02C134.68,41.44,135.93,40.44,137.35,40.44z M137.73,45.3
			c1.11,0,1.64-0.8,1.64-1.84c0-1-0.48-1.79-1.63-1.79c-1.06,0-1.74,0.75-1.74,1.88C136,44.62,136.7,45.3,137.73,45.3z"/>
		<path d="M142.79,38.69h1.3v1.89h1.04v1.27h-1.04v2.03c0,0.91,0.23,1.21,0.98,1.21c0.09,0,0.37-0.01,0.44-0.02v1.27
			c-0.2,0.02-0.54,0.04-0.75,0.04c-1.39,0-1.96-0.85-1.96-2.46v-2.08h-0.8v-1.27h0.8V38.69z"/>
		<path d="M146.56,38.8c0-0.55,0.37-0.9,0.88-0.9c0.52,0,0.88,0.37,0.88,0.87c0,0.55-0.37,0.9-0.87,0.9
			C146.93,39.67,146.56,39.31,146.56,38.8z M146.83,46.32v-5.74h1.3v5.74H146.83z"/>
		<path d="M149.6,43.51c0-1.89,1.21-3.1,3.03-3.1c1.84,0,3.08,1.22,3.08,3.04c0,1.91-1.22,3.1-3.04,3.1
			C150.83,46.55,149.6,45.34,149.6,43.51z M152.63,41.67c-1.03,0-1.71,0.67-1.71,1.76c0,1.12,0.68,1.87,1.73,1.87
			c1.03,0,1.73-0.67,1.73-1.76C154.38,42.42,153.7,41.67,152.63,41.67z"/>
		<path d="M160.89,40.45c1.25,0,2.16,0.87,2.16,2.21v3.65h-1.32v-3.46c0-0.76-0.58-1.17-1.24-1.17c-0.77,0-1.64,0.47-2,1.54v3.1
			h-1.3v-5.74h1.24l0.06,1.03C159.13,40.76,160.03,40.45,160.89,40.45z"/>
	</g>
	<g>
		<path d="M79.94,26.45c0,3.48-2.26,6.06-5.75,6.06h-5.67V21.06l5.68-0.02C77.61,21.04,79.94,23.25,79.94,26.45z M73.56,30.69
			c2.67,0,4.26-1.71,4.26-4.17c0-2.24-1.6-3.58-4.24-3.58l-3.12,0.02v7.74H73.56z"/>
		<path d="M92.37,32.51H84.7v-8.08h7.46v1.72h-5.71v1.3h4.69v1.77h-4.69v1.57h5.93V32.51z"/>
		<path d="M102.74,21.04c2.96,0,5.17,0.41,5.17,3.01c0,0.96-0.48,1.64-1.14,2.22c0.86,0.59,1.38,1.43,1.38,2.43
			c0,2.91-2.33,3.81-4.6,3.81h-6.34V21.06C98.17,21.08,100.86,21.04,102.74,21.04z M104.08,25.61c1.09,0,1.64-0.79,1.64-1.4
			c0-0.67-0.59-1.27-1.89-1.27c-0.91,0-2.14,0.03-4.67,0.05v2.62H104.08z M99.15,30.67c0.59,0,3.57,0.04,4.5,0.04
			c1.22,0,2.34-0.6,2.34-1.83c0-1.02-1.07-1.4-2.27-1.4h-4.57V30.67z"/>
		<path d="M112.75,28.28v-7.22h1.95v6.77c0,2.02,1.17,3.13,3.62,3.13c2.43,0,3.62-1.12,3.62-3.13v-6.77h1.95v7.22
			c0,2.77-2.08,4.65-5.56,4.65C114.84,32.93,112.75,31.05,112.75,28.28z"/>
		<path d="M138.85,32.51h-9.92V21.06h1.95v9.56h7.98V32.51z"/>
		<path d="M152.79,32.51h-9.92V21.06h1.95v9.56h7.98V32.51z"/>
		<path d="M156.81,32.51V21.06h1.95v11.46H156.81z"/>
		<path d="M163.15,26.83c0-3.79,2.41-6.2,6.06-6.2c3.67,0,6.13,2.45,6.13,6.08c0,3.79-2.43,6.2-6.08,6.2
			C165.6,32.91,163.15,30.46,163.15,26.83z M169.22,22.51c-2.46,0-4.03,1.57-4.03,4.15c0,2.65,1.57,4.39,4.07,4.39
			c2.46,0,4.07-1.57,4.07-4.15C173.32,24.24,171.71,22.51,169.22,22.51z"/>
		<path d="M191.5,32.51h-1.98l-7.49-8.44v8.44h-1.95V21.06h1.96l7.51,8.53v-8.53h1.95V32.51z"/>
	</g>
</g>
</svg>
