<?xml version="1.0" encoding="utf-8"?>
<!-- Generator: Adobe Illustrator 27.5.0, SVG Export Plug-In . SVG Version: 6.00 Build 0)  -->
<svg version="1.0" id="レイヤー_1" xmlns="http://www.w3.org/2000/svg" xmlns:xlink="http://www.w3.org/1999/xlink" x="0px"
	 y="0px" viewBox="0 0 153.56 167.42" style="enable-background:new 0 0 153.56 167.42;" xml:space="preserve">
<style type="text/css">
	.st0{fill:#FFFFFF;}
</style>
<g>
	<g>
		<g>
			<polygon points="100.59,12.98 76.78,9.92 101.97,9.92 114.08,30.9 			"/>
			<polygon points="53.72,102.59 77.53,105.65 52.34,105.65 40.23,84.67 			"/>
			<path d="M135.25,55.48H19.06c-0.92,0-1.78-0.49-2.24-1.29c-0.46-0.8-0.46-1.79,0-2.59L45.87,1.29C46.33,0.49,47.18,0,48.11,0
				h58.09c0.92,0,1.78,0.49,2.24,1.29l29.05,50.31c0.46,0.8,0.46,1.79,0,2.59C137.02,54.99,136.17,55.48,135.25,55.48z M23.54,50.31
				h107.22L104.71,5.17H49.6L23.54,50.31z"/>
			<path d="M106.2,115.57H48.11c-0.92,0-1.78-0.49-2.24-1.29L16.82,63.96c-0.46-0.8-0.46-1.79,0-2.59c0.46-0.8,1.32-1.29,2.24-1.29
				h116.18c0.92,0,1.78,0.49,2.24,1.29c0.46,0.8,0.46,1.79,0,2.59l-29.05,50.31C107.98,115.07,107.12,115.57,106.2,115.57z
				 M49.6,110.39h55.1l26.06-45.14H23.54L49.6,110.39z"/>
		</g>
	</g>
	<g>
		<path d="M14.26,139.63c0,4.35-2.82,7.57-7.19,7.57H0v-14.31l7.1-0.02C11.36,132.87,14.26,135.63,14.26,139.63z M6.3,144.92
			c3.33,0,5.31-2.13,5.31-5.21c0-2.8-2-4.47-5.29-4.47l-3.89,0.02v9.66H6.3z"/>
		<path d="M29.78,147.2H20.2v-10.08h9.3v2.15h-7.12v1.62h5.85v2.21h-5.85v1.96h7.39V147.2z"/>
		<path d="M42.73,132.87c3.7,0,6.45,0.52,6.45,3.77c0,1.21-0.6,2.04-1.42,2.78c1.08,0.73,1.72,1.79,1.72,3.03
			c0,3.64-2.9,4.75-5.75,4.75h-7.92v-14.31C37.03,132.92,40.38,132.87,42.73,132.87z M44.41,138.58c1.36,0,2.04-0.99,2.04-1.74
			c0-0.84-0.73-1.59-2.37-1.59c-1.14,0-2.67,0.04-5.83,0.06v3.27H44.41z M38.25,144.9c0.73,0,4.45,0.04,5.62,0.04
			c1.53,0,2.93-0.75,2.93-2.28c0-1.27-1.33-1.74-2.84-1.74h-5.7V144.9z"/>
		<path d="M55.23,141.91v-9.02h2.43v8.46c0,2.52,1.46,3.92,4.52,3.92c3.03,0,4.52-1.4,4.52-3.92v-8.46h2.43v9.02
			c0,3.46-2.6,5.81-6.95,5.81C57.84,147.72,55.23,145.37,55.23,141.91z"/>
		<path d="M87.82,147.2H75.43v-14.31h2.43v11.94h9.96V147.2z"/>
		<path d="M105.23,147.2H92.84v-14.31h2.43v11.94h9.96V147.2z"/>
		<path d="M110.25,147.2v-14.31h2.43v14.31H110.25z"/>
		<path d="M118.17,140.1c0-4.73,3.01-7.75,7.57-7.75c4.58,0,7.66,3.05,7.66,7.59c0,4.73-3.03,7.75-7.6,7.75
			C121.22,147.7,118.17,144.64,118.17,140.1z M125.74,134.7c-3.08,0-5.03,1.96-5.03,5.19c0,3.31,1.96,5.49,5.08,5.49
			c3.08,0,5.08-1.96,5.08-5.19C130.86,136.88,128.86,134.7,125.74,134.7z"/>
		<path d="M153.56,147.2h-2.47l-9.36-10.54v10.54h-2.43v-14.31h2.45l9.38,10.65v-10.65h2.43V147.2z"/>
	</g>
	<g>
		<path d="M40.09,164.69c-2.3,0-3.93-1.5-3.93-3.79c0-2.2,1.46-3.86,3.73-3.86c1.53,0,3.02,0.62,3.52,2.42
			c-0.47,0.19-0.96,0.36-1.43,0.53c-0.27-0.99-1.1-1.4-2.03-1.4c-1.16,0-2.15,0.77-2.15,2.22c0,1.4,0.8,2.36,2.27,2.36
			c0.79,0,1.73-0.34,2.12-1.06l1.32,0.6C42.91,164.05,41.54,164.69,40.09,164.69z"/>
		<path d="M44.42,160.9c0-2.36,1.5-3.86,3.78-3.86c2.29,0,3.83,1.52,3.83,3.79c0,2.37-1.52,3.86-3.79,3.86
			C45.95,164.69,44.42,163.19,44.42,160.9z M48.2,158.62c-1.29,0-2.13,0.83-2.13,2.19c0,1.4,0.84,2.33,2.16,2.33
			c1.29,0,2.16-0.83,2.16-2.19C50.38,159.54,49.53,158.62,48.2,158.62z"/>
		<path d="M55.5,160.76v3.65h-1.62v-7.15h1.4c0.01,0.29,0.1,1.19,0.11,1.47c0.74-1,2.2-1.64,3.2-1.64v1.64
			C57.43,158.73,55.5,159.44,55.5,160.76z"/>
		<path d="M59.93,157.26h1.52c0.03,0.3,0.06,0.6,0.1,0.9c0.6-0.7,1.5-1.06,2.52-1.06c1.76,0,3.33,1.23,3.33,3.73
			c0,2.42-1.67,3.79-3.49,3.79c-0.96,0-1.8-0.36-2.36-1.07v3.87h-1.62V157.26z M63.56,158.62c-1.4,0-2.02,0.96-2.02,2.22
			c0,1.27,0.64,2.3,2.04,2.3c1.29,0,2.16-0.83,2.16-2.19C65.75,159.54,64.88,158.62,63.56,158.62z"/>
		<path d="M68.63,160.9c0-2.36,1.5-3.86,3.78-3.86c2.29,0,3.83,1.52,3.83,3.79c0,2.37-1.52,3.86-3.79,3.86
			C70.16,164.69,68.63,163.19,68.63,160.9z M72.41,158.62c-1.29,0-2.13,0.83-2.13,2.19c0,1.4,0.84,2.33,2.16,2.33
			c1.29,0,2.16-0.83,2.16-2.19C74.6,159.54,73.74,158.62,72.41,158.62z"/>
		<path d="M79.71,160.76v3.65h-1.62v-7.15h1.4c0.01,0.29,0.1,1.19,0.11,1.47c0.74-1,2.2-1.64,3.2-1.64v1.64
			C81.64,158.73,79.71,159.44,79.71,160.76z"/>
		<path d="M86.86,157.09c0.99,0,1.89,0.39,2.5,1.07c0.04-0.3,0.09-0.6,0.11-0.9h1.52v7.15h-1.52l-0.1-0.86
			c-0.57,0.71-1.42,1.07-2.34,1.07c-1.83,0-3.5-1.39-3.5-3.76C83.52,158.33,85.08,157.09,86.86,157.09z M87.33,163.13
			c1.39,0,2.04-1,2.04-2.29c0-1.24-0.6-2.23-2.03-2.23c-1.32,0-2.17,0.93-2.17,2.34C85.17,162.29,86.04,163.13,87.33,163.13z"/>
		<path d="M93.63,154.9h1.62v2.36h1.3v1.59h-1.3v2.53c0,1.13,0.29,1.5,1.21,1.5c0.11,0,0.46-0.01,0.54-0.03v1.59
			c-0.24,0.03-0.67,0.06-0.93,0.06c-1.73,0-2.45-1.06-2.45-3.06v-2.59h-1v-1.59h1V154.9z"/>
		<path d="M98.33,155.04c0-0.69,0.46-1.11,1.1-1.11s1.1,0.46,1.1,1.09c0,0.69-0.46,1.12-1.09,1.12
			C98.79,156.13,98.33,155.67,98.33,155.04z M98.66,164.41v-7.15h1.62v7.15H98.66z"/>
		<path d="M102.11,160.9c0-2.36,1.5-3.86,3.78-3.86c2.29,0,3.83,1.52,3.83,3.79c0,2.37-1.52,3.86-3.79,3.86
			C103.64,164.69,102.11,163.19,102.11,160.9z M105.89,158.62c-1.29,0-2.13,0.83-2.13,2.19c0,1.4,0.84,2.33,2.16,2.33
			c1.29,0,2.16-0.83,2.16-2.19C108.08,159.54,107.22,158.62,105.89,158.62z"/>
		<path d="M116.18,157.1c1.56,0,2.69,1.09,2.69,2.76v4.55h-1.64v-4.32c0-0.94-0.73-1.46-1.54-1.46c-0.96,0-2.04,0.59-2.49,1.92v3.86
			h-1.62v-7.15h1.54l0.07,1.29C113.99,157.49,115.11,157.1,116.18,157.1z"/>
	</g>
</g>
</svg>
