<svg xmlns="http://www.w3.org/2000/svg" xmlns:xlink="http://www.w3.org/1999/xlink" width="200" zoomAndPan="magnify" viewBox="0 0 150 200.249992" height="267" preserveAspectRatio="xMidYMid meet" version="1.0">
    <defs>
        <clipPath id="83515fded6">
            <path d="M 1 0 L 148.832031 0 L 148.832031 195 L 1 195 Z M 1 0 " clip-rule="nonzero"/>
        </clipPath>
        <clipPath id="fb3448e662"><path d="M 17.59375 17.058594 L 132.40625 17.058594 L 132.40625 132.320312 L 17.59375 132.320312 Z M 17.59375 17.058594 " clip-rule="nonzero"/>
        </clipPath>
        <clipPath id="bead6dfa64"><path d="M 75 17.058594 C 43.296875 17.058594 17.59375 42.828125 17.59375 74.617188 C 17.59375 106.402344 43.296875 132.171875 75 132.171875 C 106.703125 132.171875 132.40625 106.402344 132.40625 74.617188 C 132.40625 42.828125 106.703125 17.058594 75 17.058594 Z M 75 17.058594 " clip-rule="nonzero"/>
        </clipPath>
    </defs>
    <g clip-path="url(#83515fded6)">
        <path fill="#3388ff" d="M 148.683594 73.6875 C 148.605469 32.921875 115.503906 -0.0664062 74.75 0.0117188 C 33.992188 0.0898438 1.019531 33.199219 1.09375 73.964844 C 1.121094 88.101562 5.394531 101.128906 12.027344 112.507812 C 27.019531 138.203125 75.117188 194.964844 75.117188 194.964844 C 75.117188 194.964844 123.664062 137.179688 138.441406 111.347656 C 144.800781 100.214844 148.714844 87.433594 148.683594 73.6875 Z M 74.777344 17.058594 C 106.128906 16.996094 131.582031 42.367188 131.644531 73.71875 C 131.703125 105.066406 106.34375 130.535156 74.992188 130.597656 C 43.652344 130.652344 18.195312 105.285156 18.132812 73.933594 C 18.074219 42.582031 43.433594 17.113281 74.777344 17.058594 Z M 74.777344 17.058594 " fill-opacity="1" fill-rule="nonzero"/>
    </g>
    <g clip-path="url(#fb3448e662)">
        <g clip-path="url(#bead6dfa64)">
            <path fill="#d3d3d3" d="M 17.59375 17.058594 L 132.40625 17.058594 L 132.40625 132.320312 L 17.59375 132.320312 Z M 17.59375 17.058594 " fill-opacity="1" fill-rule="nonzero"/>
        </g>
    </g>
</svg>