<svg xmlns="http://www.w3.org/2000/svg" xmlns:xlink="http://www.w3.org/1999/xlink" width="395" zoomAndPan="magnify" viewBox="0 0 296.25 296.249993" height="395" preserveAspectRatio="xMidYMid meet" version="1.0"><defs><clipPath id="89f8d9eeb0"><path d="M 36.9375 0 L 258.378906 0 L 258.378906 295.5 L 36.9375 295.5 Z M 36.9375 0 " clip-rule="nonzero"/></clipPath></defs><g clip-path="url(#89f8d9eeb0)"><path fill="#ffc107" d="M 147.65625 0 C 86.59375 0 36.9375 49.699219 36.9375 110.8125 C 36.9375 187.625 136.878906 288.539062 141.125 292.804688 C 142.933594 294.597656 145.296875 295.5 147.65625 295.5 C 150.019531 295.5 152.382812 294.597656 154.191406 292.804688 C 158.433594 288.539062 258.378906 187.625 258.378906 110.8125 C 258.378906 49.699219 208.71875 0 147.65625 0 Z M 147.65625 0 " fill-opacity="1" fill-rule="nonzero"/></g><path fill="#fafafa" d="M 203.015625 110.8125 C 203.015625 112.628906 202.929688 114.4375 202.75 116.242188 C 202.574219 118.050781 202.308594 119.84375 201.953125 121.621094 C 201.601562 123.402344 201.160156 125.160156 200.632812 126.898438 C 200.105469 128.632812 199.496094 130.339844 198.804688 132.015625 C 198.109375 133.691406 197.335938 135.332031 196.480469 136.933594 C 195.625 138.53125 194.695312 140.085938 193.6875 141.59375 C 192.679688 143.105469 191.601562 144.558594 190.449219 145.960938 C 189.300781 147.367188 188.085938 148.707031 186.800781 149.992188 C 185.519531 151.273438 184.179688 152.492188 182.777344 153.644531 C 181.375 154.792969 179.921875 155.875 178.414062 156.882812 C 176.90625 157.890625 175.351562 158.820312 173.753906 159.675781 C 172.15625 160.53125 170.519531 161.308594 168.84375 162.003906 C 167.167969 162.695312 165.460938 163.308594 163.726562 163.835938 C 161.992188 164.359375 160.234375 164.800781 158.457031 165.15625 C 156.679688 165.507812 154.886719 165.773438 153.082031 165.953125 C 151.277344 166.132812 149.46875 166.21875 147.65625 166.21875 C 145.84375 166.21875 144.035156 166.132812 142.230469 165.953125 C 140.425781 165.773438 138.636719 165.507812 136.855469 165.15625 C 135.078125 164.800781 133.324219 164.359375 131.585938 163.835938 C 129.851562 163.308594 128.148438 162.695312 126.472656 162.003906 C 124.796875 161.308594 123.160156 160.53125 121.5625 159.675781 C 119.960938 158.820312 118.410156 157.890625 116.902344 156.882812 C 115.394531 155.875 113.9375 154.792969 112.539062 153.644531 C 111.136719 152.492188 109.792969 151.273438 108.511719 149.992188 C 107.230469 148.707031 106.015625 147.367188 104.863281 145.960938 C 103.714844 144.558594 102.632812 143.105469 101.628906 141.59375 C 100.621094 140.085938 99.6875 138.53125 98.835938 136.933594 C 97.980469 135.332031 97.207031 133.691406 96.511719 132.015625 C 95.816406 130.339844 95.207031 128.632812 94.679688 126.898438 C 94.15625 125.160156 93.714844 123.402344 93.359375 121.621094 C 93.007812 119.84375 92.742188 118.050781 92.5625 116.242188 C 92.386719 114.4375 92.296875 112.628906 92.296875 110.8125 C 92.296875 109 92.386719 107.1875 92.5625 105.382812 C 92.742188 103.578125 93.007812 101.785156 93.359375 100.003906 C 93.714844 98.222656 94.15625 96.464844 94.679688 94.730469 C 95.207031 92.992188 95.816406 91.285156 96.511719 89.609375 C 97.207031 87.933594 97.980469 86.296875 98.835938 84.695312 C 99.6875 83.09375 100.621094 81.539062 101.628906 80.03125 C 102.632812 78.523438 103.714844 77.066406 104.863281 75.664062 C 106.015625 74.261719 107.230469 72.917969 108.511719 71.636719 C 109.792969 70.351562 111.136719 69.132812 112.539062 67.984375 C 113.9375 66.832031 115.394531 65.753906 116.902344 64.746094 C 118.410156 63.734375 119.960938 62.804688 121.5625 61.949219 C 123.160156 61.09375 124.796875 60.320312 126.472656 59.625 C 128.148438 58.929688 129.851562 58.320312 131.585938 57.792969 C 133.324219 57.265625 135.078125 56.824219 136.855469 56.472656 C 138.636719 56.117188 140.425781 55.851562 142.230469 55.671875 C 144.035156 55.496094 145.84375 55.40625 147.65625 55.40625 C 149.46875 55.40625 151.277344 55.496094 153.082031 55.671875 C 154.886719 55.851562 156.679688 56.117188 158.457031 56.472656 C 160.234375 56.824219 161.992188 57.265625 163.726562 57.792969 C 165.460938 58.320312 167.167969 58.929688 168.84375 59.625 C 170.519531 60.320312 172.15625 61.09375 173.753906 61.949219 C 175.351562 62.804688 176.90625 63.734375 178.414062 64.746094 C 179.921875 65.753906 181.375 66.832031 182.777344 67.984375 C 184.179688 69.132812 185.519531 70.351562 186.800781 71.636719 C 188.085938 72.917969 189.300781 74.261719 190.449219 75.664062 C 191.601562 77.066406 192.679688 78.523438 193.6875 80.03125 C 194.695312 81.539062 195.625 83.09375 196.480469 84.695312 C 197.335938 86.296875 198.109375 87.933594 198.804688 89.609375 C 199.496094 91.285156 200.105469 92.992188 200.632812 94.730469 C 201.160156 96.464844 201.601562 98.222656 201.953125 100.003906 C 202.308594 101.785156 202.574219 103.578125 202.75 105.382812 C 202.929688 107.1875 203.015625 109 203.015625 110.8125 Z M 203.015625 110.8125 " fill-opacity="1" fill-rule="nonzero"/></svg>